<svg version="1.2" xmlns="http://www.w3.org/2000/svg" viewBox="0 0 1224 451" width="1224" height="451">
	<style>
		.s0 { fill: #0255d1 } 
		.s1 { fill: #1c75bc } 
		.s2 { fill: #0c4c78 } 
		.s3 { fill: #1b1918 } 
	</style>
	<g id="Page 1">
		<path id="Path 1" fill-rule="evenodd" class="s0" d="m190.91 221.12h103.14l0.1-141.83-103.05 51.18zm-0.01 7.75l-0.21 91.12 103.26 51.72 0.1-142.84z"/>
		<path id="Path 2" fill-rule="evenodd" class="s1" d="m313.52 221.12h102.99l0.37-111.09-102.17-31.91zm-0.06 7.76l-1.2 143 103.85-31.55 0.37-111.45z"/>
		<path id="Path 3" fill-rule="evenodd" class="s2" d="m434.67 221.12h61.79l-0.32-84.67-61.24-20.04zm-0.03 7.76l-0.22 103.46 62.39-17.13-0.33-86.33z"/>
		<path id="Path 4" fill-rule="evenodd" class="s3" d="m544.92 308.91v-23.4h-8.13v-3.11h19.55v3.11h-8.14v23.4zm22.79-6.22l3.14 0.44q-0.73 2.95-2.74 4.57-1.99 1.62-5.1 1.62-3.91 0-6.21-2.59-2.29-2.59-2.29-7.27 0-4.83 2.31-7.5 2.33-2.68 6.02-2.67 3.58 0 5.84 2.61 2.28 2.62 2.28 7.37-0.01 0.29-0.02 0.86h-13.33q0.17 3.17 1.67 4.85 1.49 1.66 3.73 1.67 1.66 0 2.84-0.95 1.17-0.94 1.86-3.01zm-9.93-5.22h9.96q-0.2-2.43-1.14-3.63-1.44-1.89-3.74-1.89-2.09 0-3.51 1.5-1.42 1.5-1.57 4.02zm16.9 11.44v-19.21h2.73v2.71q0.83-1.41 2.23-2.27 1.39-0.85 3.17-0.85 1.99 0 3.26 0.88 1.27 0.88 1.78 2.47 2.14-3.36 5.55-3.35 2.68 0 4.11 1.58 1.44 1.58 1.44 4.86v13.18h-3.03v-12.1q-0.01-1.94-0.3-2.8-0.29-0.86-1.08-1.39-0.77-0.52-1.82-0.52-1.89 0-3.14 1.35-1.25 1.34-1.25 4.31v11.15h-3.03v-12.47q0-2.17-0.74-3.25-0.75-1.09-2.43-1.09-1.27 0-2.35 0.72-1.09 0.72-1.58 2.12-0.49 1.39-0.49 4.01v9.96zm28.72 7.37v-26.58h2.76v2.52q0.97-1.47 2.2-2.2 1.23-0.73 2.98-0.73 2.28 0 4.04 1.26 1.75 1.26 2.64 3.56 0.89 2.31 0.89 5.05 0 2.94-0.99 5.29-0.97 2.36-2.86 3.61-1.87 1.26-3.93 1.26-1.53 0-2.72-0.69-1.21-0.68-1.98-1.72v9.37zm2.76-16.86q0 3.69 1.38 5.46 1.41 1.77 3.39 1.77 2.01 0 3.44-1.83 1.44-1.83 1.44-5.67 0-3.67-1.4-5.49-1.41-1.82-3.35-1.82-1.94 0.01-3.42 1.94-1.48 1.94-1.48 5.64zm16.34 9.49v-26.51h3.04v26.51zm19.41-2.41q-1.7 1.55-3.26 2.18-1.55 0.64-3.34 0.64-2.95 0-4.54-1.55-1.59-1.53-1.59-3.93 0-1.41 0.61-2.57 0.59-1.17 1.57-1.87 0.96-0.71 2.18-1.06 0.9-0.26 2.7-0.5 3.67-0.46 5.4-1.11 0.03-0.67 0.03-0.85 0-1.98-0.87-2.79-1.16-1.1-3.45-1.1-2.15 0-3.17 0.81-1.02 0.8-1.51 2.86l-2.96-0.45q0.4-2.05 1.33-3.31 0.93-1.25 2.68-1.94 1.76-0.67 4.07-0.67 2.3 0 3.74 0.58 1.43 0.58 2.11 1.45 0.67 0.88 0.94 2.23 0.15 0.83 0.15 2.99v4.32q0 4.52 0.2 5.73 0.17 1.21 0.74 2.32h-3.17q-0.46-1.03-0.59-2.41zm-0.24-7.22q-1.66 0.73-4.97 1.23-1.88 0.28-2.65 0.65-0.78 0.35-1.19 1.04-0.43 0.7-0.43 1.54-0.01 1.3 0.92 2.16 0.92 0.86 2.69 0.87 1.74 0 3.11-0.82 1.37-0.83 2.01-2.24 0.49-1.1 0.48-3.24zm19.28 9.62v-2.44q-1.7 2.86-5 2.86-2.14 0-3.92-1.27-1.79-1.27-2.79-3.52-0.98-2.27-0.98-5.21 0-2.87 0.89-5.21 0.9-2.34 2.68-3.58 1.78-1.25 3.98-1.24 1.62 0 2.88 0.72 1.25 0.74 2.05 1.92v-9.54h3.04v26.51zm-9.59-9.58q0 3.69 1.45 5.5 1.45 1.83 3.43 1.82 1.99 0 3.38-1.73 1.39-1.75 1.4-5.32-0.01-3.92-1.43-5.77-1.41-1.83-3.49-1.83-2.02 0-3.38 1.76-1.36 1.77-1.36 5.57zm16.07-0.02q0-5.33 2.77-7.89 2.3-2.13 5.62-2.12 3.68-0.01 6.02 2.58 2.35 2.59 2.35 7.16-0.01 3.7-1.04 5.82-1.03 2.12-3.02 3.29-1.97 1.18-4.31 1.18-3.76 0-6.07-2.59-2.32-2.58-2.32-7.43zm3.1 0q0 3.69 1.5 5.52 1.51 1.83 3.79 1.82 2.26 0.01 3.77-1.83 1.49-1.85 1.49-5.61 0-3.55-1.51-5.38-1.51-1.83-3.75-1.83-2.28-0.01-3.79 1.82-1.5 1.82-1.5 5.49zm16 3.87l3-0.53q0.26 1.95 1.41 2.97 1.16 1.03 3.23 1.03 2.09 0.01 3.11-0.91 1.01-0.91 1.01-2.14 0-1.1-0.91-1.73-0.64-0.43-3.1-1.11-3.33-0.9-4.62-1.55-1.27-0.66-1.94-1.83-0.67-1.16-0.67-2.56 0-1.29 0.54-2.38 0.56-1.09 1.5-1.82 0.7-0.55 1.92-0.94 1.22-0.39 2.61-0.38 2.11-0.01 3.69 0.64 1.59 0.66 2.35 1.77 0.76 1.12 1.04 2.98l-2.97 0.45q-0.2-1.5-1.16-2.34-0.96-0.84-2.73-0.84-2.08 0-2.96 0.74-0.9 0.74-0.9 1.74 0 0.62 0.37 1.14 0.37 0.51 1.16 0.86 0.45 0.18 2.67 0.83 3.21 0.92 4.48 1.51 1.28 0.58 2 1.7 0.73 1.12 0.73 2.78 0 1.62-0.88 3.06-0.89 1.43-2.56 2.22-1.66 0.78-3.77 0.79-3.48-0.01-5.31-1.56-1.83-1.54-2.34-4.59zm27.88 13.12l-0.34-3q1 0.28 1.73 0.28 1.02 0 1.63-0.36 0.61-0.37 1-1.01 0.29-0.49 0.92-2.44 0.08-0.27 0.27-0.8l-6.79-19.27h3.24l3.73 11.1q0.74 2.1 1.31 4.43 0.52-2.19 1.25-4.33l3.81-11.2h3.03l-6.76 19.55q-1.1 3.16-1.71 4.34-0.81 1.61-1.85 2.35-1.06 0.75-2.5 0.75-0.89 0-1.97-0.39zm27.34-7.39v-26.51h9.31q2.46 0.01 3.76 0.25 1.82 0.34 3.06 1.24 1.23 0.93 1.98 2.55 0.74 1.64 0.74 3.61 0.01 3.38-2.01 5.71-1.99 2.35-7.24 2.35h-6.33v10.8zm3.28-13.92h6.37q3.17 0.01 4.5-1.27 1.33-1.25 1.33-3.56 0-1.66-0.78-2.84-0.79-1.19-2.06-1.57-0.84-0.24-3.05-0.24h-6.31zm19.3 13.93v-19.21h2.72v2.93q1.05-2.04 1.93-2.69 0.89-0.65 1.95-0.65 1.54 0 3.12 1.02l-1.08 3.01q-1.1-0.66-2.21-0.66-0.98 0-1.77 0.64-0.79 0.63-1.12 1.77-0.51 1.73-0.51 3.8v10.04zm10.38-9.61q0-5.32 2.76-7.89 2.31-2.12 5.62-2.12 3.69 0 6.03 2.59 2.34 2.58 2.34 7.15 0 3.7-1.03 5.82-1.04 2.12-3.02 3.3-1.98 1.17-4.32 1.17-3.75 0-6.07-2.59-2.32-2.58-2.31-7.43zm3.1 0q0 3.7 1.5 5.52 1.51 1.83 3.78 1.83 2.26 0 3.77-1.84 1.5-1.84 1.5-5.61-0.01-3.55-1.51-5.38-1.51-1.83-3.76-1.83-2.27 0-3.78 1.82-1.5 1.82-1.5 5.49zm28.89 2.58l2.97 0.44q-0.49 3.28-2.5 5.14-2.01 1.86-4.93 1.86-3.67 0-5.89-2.58-2.23-2.57-2.23-7.36 0.01-3.11 0.96-5.44 0.95-2.33 2.92-3.49 1.95-1.16 4.26-1.16 2.91 0 4.76 1.58 1.85 1.58 2.37 4.49l-2.93 0.48q-0.42-1.94-1.49-2.91-1.07-0.97-2.59-0.98-2.28 0-3.73 1.76-1.43 1.77-1.43 5.57 0.01 3.87 1.38 5.62 1.39 1.75 3.6 1.75 1.8 0 2.99-1.17 1.19-1.16 1.51-3.6zm17.76 0.81l3.13 0.44q-0.73 2.95-2.73 4.57-2 1.62-5.11 1.62-3.91 0-6.2-2.59-2.3-2.59-2.29-7.27-0.01-4.83 2.31-7.5 2.32-2.68 6.01-2.67 3.58 0 5.85 2.61 2.26 2.62 2.26 7.37 0.01 0.29-0.01 0.86h-13.32q0.16 3.17 1.66 4.85 1.5 1.66 3.73 1.67 1.67 0 2.84-0.95 1.18-0.94 1.87-3.01zm-9.93-5.22h9.96q-0.2-2.43-1.14-3.63-1.44-1.89-3.75-1.89-2.08 0-3.5 1.5-1.42 1.5-1.57 4.02zm15.69 5.7l3-0.52q0.25 1.94 1.4 2.97 1.16 1.03 3.24 1.03 2.09 0 3.1-0.92 1.01-0.9 1.01-2.14 0-1.1-0.9-1.73-0.64-0.43-3.11-1.1-3.32-0.9-4.61-1.56-1.29-0.66-1.95-1.82-0.67-1.16-0.67-2.57 0.01-1.28 0.55-2.38 0.55-1.09 1.49-1.81 0.7-0.56 1.92-0.95 1.22-0.38 2.62-0.38 2.1 0 3.69 0.65 1.59 0.65 2.35 1.76 0.75 1.13 1.04 2.99l-2.97 0.44q-0.2-1.5-1.16-2.34-0.97-0.84-2.73-0.84-2.09 0-2.98 0.75-0.88 0.73-0.89 1.73 0 0.62 0.37 1.14 0.37 0.52 1.16 0.86 0.45 0.19 2.68 0.84 3.2 0.91 4.48 1.5 1.27 0.59 2 1.71 0.73 1.11 0.73 2.78-0.01 1.61-0.89 3.05-0.89 1.43-2.55 2.22-1.68 0.79-3.77 0.79-3.49 0-5.32-1.55-1.82-1.55-2.33-4.6zm17.3-3.87q0-5.32 2.77-7.89 2.3-2.12 5.62-2.12 3.68 0 6.03 2.59 2.34 2.58 2.34 7.15 0 3.7-1.04 5.82-1.03 2.12-3.02 3.3-1.97 1.17-4.31 1.17-3.76 0-6.07-2.59-2.32-2.58-2.32-7.43zm3.1 0q0 3.7 1.5 5.52 1.51 1.83 3.79 1.83 2.26 0 3.77-1.84 1.49-1.84 1.49-5.61 0-3.55-1.51-5.38-1.51-1.83-3.75-1.83-2.28 0-3.79 1.82-1.5 1.82-1.5 5.49zm16 3.87l3-0.52q0.26 1.94 1.41 2.97 1.16 1.03 3.23 1.03 2.09 0 3.11-0.92 1.01-0.9 1.01-2.14 0-1.1-0.91-1.73-0.64-0.43-3.1-1.1-3.33-0.9-4.61-1.56-1.29-0.66-1.95-1.82-0.67-1.16-0.66-2.57 0-1.28 0.54-2.38 0.55-1.09 1.49-1.81 0.71-0.56 1.92-0.95 1.23-0.38 2.62-0.38 2.1 0 3.68 0.65 1.6 0.65 2.36 1.76 0.75 1.13 1.04 2.99l-2.97 0.44q-0.2-1.5-1.17-2.34-0.96-0.84-2.72-0.84-2.09 0-2.97 0.75-0.89 0.73-0.89 1.73-0.01 0.62 0.36 1.14 0.37 0.52 1.16 0.86 0.46 0.19 2.67 0.84 3.21 0.91 4.49 1.5 1.27 0.59 2 1.71 0.72 1.11 0.72 2.78 0.01 1.61-0.88 3.05-0.89 1.43-2.55 2.22-1.67 0.79-3.78 0.79-3.48 0-5.31-1.55-1.83-1.55-2.34-4.6zm40.23-0.48l3.13 0.44q-0.73 2.95-2.73 4.57-2 1.62-5.1 1.62-3.92 0-6.21-2.59-2.29-2.59-2.29-7.27-0.01-4.83 2.31-7.5 2.32-2.68 6.01-2.67 3.58 0 5.85 2.61 2.27 2.62 2.27 7.37 0 0.29-0.02 0.86h-13.32q0.17 3.17 1.66 4.85 1.5 1.66 3.74 1.67 1.66 0 2.83-0.95 1.18-0.94 1.87-3.01zm-9.93-5.22h9.96q-0.2-2.43-1.14-3.63-1.44-1.89-3.75-1.89-2.08 0-3.5 1.5-1.42 1.5-1.57 4.02zm16.9 11.44v-19.21h2.72v2.72q1.97-3.13 5.68-3.13 1.62 0 2.97 0.62 1.35 0.62 2.03 1.64 0.67 1 0.94 2.4 0.17 0.9 0.17 3.16v11.8h-3.03v-11.68q0-1.99-0.36-2.97-0.35-0.99-1.25-1.57-0.89-0.59-2.11-0.59-1.92 0-3.32 1.32-1.41 1.32-1.41 5v10.49zm36.16 0l-9.53-26.51h3.53l6.41 19.26q0.78 2.32 1.3 4.34 0.56-2.17 1.33-4.34l6.64-19.26h3.34l-9.62 26.51zm14.96-22.81v-3.7h3.04v3.7zm0 22.81v-19.21h3.03v19.21zm19.21 0v-2.44q-1.69 2.85-5 2.85-2.13 0-3.92-1.27-1.79-1.26-2.78-3.52-0.98-2.27-0.98-5.21 0-2.87 0.89-5.21 0.9-2.33 2.68-3.58 1.78-1.25 3.97-1.24 1.63 0 2.89 0.73 1.25 0.74 2.04 1.91v-9.53h3.04v26.51zm-9.58-9.58q0 3.68 1.45 5.5 1.45 1.82 3.43 1.82 1.98 0 3.38-1.74 1.39-1.74 1.39-5.32 0-3.92-1.42-5.76-1.42-1.84-3.49-1.84-2.03 0-3.38 1.76-1.36 1.77-1.36 5.58zm17.17 9.58v-19.21h2.73v2.93q1.04-2.04 1.92-2.69 0.89-0.65 1.95-0.65 1.53 0 3.13 1.02l-1.09 3.01q-1.1-0.66-2.2-0.66-1 0-1.78 0.64-0.78 0.63-1.12 1.77-0.5 1.73-0.5 3.8v10.04zm11.51-22.81v-3.7h3.04v3.7zm0 22.81v-19.21h3.03v19.21zm6.52-9.61q0-5.32 2.76-7.89 2.31-2.12 5.62-2.12 3.69 0 6.04 2.59 2.33 2.58 2.33 7.15 0 3.7-1.03 5.82-1.04 2.12-3.02 3.3-1.97 1.17-4.32 1.17-3.75 0-6.07-2.59-2.31-2.58-2.31-7.43zm3.1 0q0 3.7 1.5 5.52 1.5 1.83 3.78 1.83 2.26 0 3.77-1.84 1.5-1.84 1.5-5.61 0-3.55-1.52-5.38-1.5-1.83-3.75-1.83-2.28 0-3.78 1.82-1.5 1.82-1.5 5.49zm-458.91-38.27q-24.03 0-24.03-34.44v-48.41q-0.01-31.45 27.54-31.44 11.35 0.01 17.41 4.56 6.04 4.57 8.36 13.29 2.29 8.75 2.29 21.32h-21.95v-9.95q0-3.66-0.97-6.1-0.99-2.46-4.12-2.46-3.89 0-5.14 2.62-1.24 2.61-1.23 5.74v54.4q0 4.53 1.17 7.36 1.17 2.85 4.63 2.86 3.57-0.01 4.75-2.86c0.78-1.9 1.17-4.37 1.17-7.49v-16h-5.98v-19.4h27.4v65.38h-8.99l-3.8-9.45q-5.88 10.48-18.51 10.47z"/>
		<path id="Path 5" fill-rule="evenodd" class="s3" d="m601.84 147.77h23.21v112.24h-23.21zm57.9 113.26q-7.96 0-12.15-3.7-4.18-3.7-5.72-10.14-1.51-6.44-1.53-14.61 0-8.73 1.72-14.32 1.73-5.57 5.9-9.15 4.18-3.56 11.52-6.05l14.15-4.85v-9.82q0-7.72-5.03-7.73-4.6 0-4.59 6.27v5.73h-22.18q-0.07-0.49-0.07-1.31 0-0.78 0-1.81 0-14.3 6.72-20.24 6.72-5.97 21.34-5.97 7.64 0 13.71 2.7 6.06 2.72 9.58 8.01 3.56 5.3 3.55 13.06v72.91h-22.71v-11.37q-1.66 6.02-5.48 9.19-3.83 3.2-8.73 3.2zm8.99-17.74q2.8 0 3.83-2.35 1.02-2.35 1.03-5.09v-26.67q-4.73 1.91-7.34 4.81-2.61 2.9-2.61 8.51v12.32q0 8.47 5.09 8.47zm71.03 17.74q-28.32 0-28.32-28.71v-7.58h22.96v11.24q0 3.23 1.29 5.09 1.27 1.86 4.07 1.85 4.97 0.01 4.98-7.46 0.01-6.24-2.63-9.35-2.6-3.09-6.38-5.96l-12.17-9.38q-5.76-4.45-8.72-9.43-3.01-5-3.01-13.85 0-8.22 3.92-13.57 3.91-5.36 10.41-7.97 6.45-2.62 13.99-2.62 27.79-0.01 27.8 27.73v1.79h-23.6v-3.64q0-2.87-0.97-5.54-1.02-2.69-3.88-2.68-4.84 0-4.84 5.09 0 5.19 4.07 8.13l14.18 10.31c4.42 3.2 8.11 6.97 11.12 11.36q4.49 6.56 4.49 17.47 0.01 13.52-7.69 20.61-7.68 7.06-21.07 7.07zm70.09 0q-28.32 0-28.33-28.71v-7.58h22.97v11.24q0.01 3.23 1.29 5.09 1.26 1.86 4.07 1.85 4.97 0.01 4.99-7.46 0-6.24-2.64-9.35-2.6-3.09-6.38-5.96l-12.17-9.38q-5.75-4.45-8.73-9.43-3-5-3-13.85 0-8.22 3.92-13.57 3.92-5.36 10.4-7.97 6.46-2.62 14-2.62 27.79-0.01 27.8 27.73v1.79h-23.6v-3.64q0-2.87-0.98-5.54-1-2.69-3.87-2.68-4.83 0-4.83 5.09-0.01 5.19 4.07 8.13l14.17 10.31q6.62 4.79 11.12 11.36 4.49 6.56 4.48 17.47 0.01 13.52-7.68 20.61-7.68 7.06-21.07 7.07zm44.27-1.02v-112.24h29.65q9.31-0.01 14.76 4.14 5.45 4.14 7.81 11.8 2.36 7.64 2.36 18.24-0.01 10.22-1.97 17.76-1.99 7.55-7.05 11.71-5.08 4.14-14.38 4.14h-9.13v44.45zm22.06-64.61h1.28q6.24 0.01 7.65-3.51 1.4-3.5 1.41-10.33 0-6.38-1.38-9.85-1.36-3.49-6.48-3.48h-2.48zm47.32 64.61v-95.67h23.2v10.66q1.67-5.55 5.88-8.69 4.21-3.1 10.58-3.11v19.07q-2.8 0-6.69 0.61-3.9 0.58-6.83 1.65-2.94 1.05-2.94 2.33v73.15zm81.17 1.02q-28.56 0-28.56-29.65v-38.4q0-13.52 7.58-21.6 7.6-8.06 20.98-8.05 13.47-0.01 21.05 8.05 7.59 8.08 7.6 21.6v38.4q0 29.65-28.65 29.65zm0-17.61q2.88 0.01 4.11-2.07 1.24-2.06 1.24-5.26v-46.75q0.01-8.35-5.35-8.36-5.36 0.01-5.36 8.36v46.75q0 3.2 1.24 5.26 1.25 2.08 4.12 2.07z"/>
	</g>
</svg>